<mxfile host="app.diagrams.net" modified="2024-03-13T11:57:07.747Z" agent="Mozilla/5.0 (Windows NT 10.0; Win64; x64) AppleWebKit/537.36 (KHTML, like Gecko) Chrome/122.0.0.0 Safari/537.36" etag="C7QwhAYm9E3qIMm5F6WF" version="24.0.5" type="device">
  <diagram name="PÃ¡gina-1" id="aW0oLOrm64qhiQeRaq1s">
    <mxGraphModel dx="989" dy="539" grid="1" gridSize="10" guides="1" tooltips="1" connect="1" arrows="1" fold="1" page="1" pageScale="1" pageWidth="827" pageHeight="1169" math="0" shadow="0">
      <root>
        <mxCell id="0" />
        <mxCell id="1" parent="0" />
        <mxCell id="12IPPh0hhwhr2ivxiyk1-5" value="" style="rounded=0;whiteSpace=wrap;html=1;" vertex="1" parent="1">
          <mxGeometry x="43" y="150" width="707" height="470" as="geometry" />
        </mxCell>
        <mxCell id="12IPPh0hhwhr2ivxiyk1-6" value="&lt;div&gt;&lt;br&gt;&lt;/div&gt;" style="rounded=0;whiteSpace=wrap;html=1;" vertex="1" parent="1">
          <mxGeometry x="42.25" y="150" width="257" height="470" as="geometry" />
        </mxCell>
        <mxCell id="12IPPh0hhwhr2ivxiyk1-21" value="IMG" style="ellipse;whiteSpace=wrap;html=1;aspect=fixed;" vertex="1" parent="1">
          <mxGeometry x="111.5" y="170" width="110" height="110" as="geometry" />
        </mxCell>
        <mxCell id="12IPPh0hhwhr2ivxiyk1-22" value="menu 1" style="rounded=0;whiteSpace=wrap;html=1;" vertex="1" parent="1">
          <mxGeometry x="111.5" y="340" width="118.5" height="40" as="geometry" />
        </mxCell>
        <mxCell id="12IPPh0hhwhr2ivxiyk1-23" value="menu2" style="rounded=0;whiteSpace=wrap;html=1;" vertex="1" parent="1">
          <mxGeometry x="111.5" y="390" width="118.5" height="40" as="geometry" />
        </mxCell>
        <mxCell id="12IPPh0hhwhr2ivxiyk1-24" value="menu3" style="rounded=0;whiteSpace=wrap;html=1;" vertex="1" parent="1">
          <mxGeometry x="111.5" y="440" width="118.5" height="40" as="geometry" />
        </mxCell>
        <mxCell id="12IPPh0hhwhr2ivxiyk1-25" value="IMG" style="ellipse;whiteSpace=wrap;html=1;aspect=fixed;" vertex="1" parent="1">
          <mxGeometry x="71.5" y="545" width="40" height="40" as="geometry" />
        </mxCell>
        <mxCell id="12IPPh0hhwhr2ivxiyk1-26" value="IMG" style="ellipse;whiteSpace=wrap;html=1;aspect=fixed;" vertex="1" parent="1">
          <mxGeometry x="150.75" y="545" width="40" height="40" as="geometry" />
        </mxCell>
        <mxCell id="12IPPh0hhwhr2ivxiyk1-27" value="IMG" style="ellipse;whiteSpace=wrap;html=1;aspect=fixed;" vertex="1" parent="1">
          <mxGeometry x="230" y="545" width="40" height="40" as="geometry" />
        </mxCell>
        <mxCell id="12IPPh0hhwhr2ivxiyk1-28" value="REDES SOCIAIS" style="rounded=0;whiteSpace=wrap;html=1;" vertex="1" parent="1">
          <mxGeometry x="110" y="510" width="120" height="25" as="geometry" />
        </mxCell>
        <mxCell id="12IPPh0hhwhr2ivxiyk1-29" value="TEXTO" style="rounded=0;whiteSpace=wrap;html=1;" vertex="1" parent="1">
          <mxGeometry x="330" y="200" width="370" height="100" as="geometry" />
        </mxCell>
        <mxCell id="12IPPh0hhwhr2ivxiyk1-31" value="" style="endArrow=none;html=1;rounded=0;entryX=1.003;entryY=0.737;entryDx=0;entryDy=0;entryPerimeter=0;" edge="1" parent="1" target="12IPPh0hhwhr2ivxiyk1-6">
          <mxGeometry width="50" height="50" relative="1" as="geometry">
            <mxPoint x="42.25" y="500" as="sourcePoint" />
            <mxPoint x="92.25" y="450" as="targetPoint" />
          </mxGeometry>
        </mxCell>
        <mxCell id="12IPPh0hhwhr2ivxiyk1-32" value="" style="endArrow=none;html=1;rounded=0;entryX=1.011;entryY=0.359;entryDx=0;entryDy=0;entryPerimeter=0;" edge="1" parent="1" target="12IPPh0hhwhr2ivxiyk1-6">
          <mxGeometry width="50" height="50" relative="1" as="geometry">
            <mxPoint x="43" y="320" as="sourcePoint" />
            <mxPoint x="93" y="270" as="targetPoint" />
          </mxGeometry>
        </mxCell>
        <mxCell id="12IPPh0hhwhr2ivxiyk1-33" value="NOME" style="rounded=0;whiteSpace=wrap;html=1;" vertex="1" parent="1">
          <mxGeometry x="111.5" y="290" width="120" height="20" as="geometry" />
        </mxCell>
        <mxCell id="12IPPh0hhwhr2ivxiyk1-34" value="TITULO" style="rounded=0;whiteSpace=wrap;html=1;" vertex="1" parent="1">
          <mxGeometry x="330" y="170" width="120" height="30" as="geometry" />
        </mxCell>
        <mxCell id="12IPPh0hhwhr2ivxiyk1-35" value="TITULO" style="rounded=0;whiteSpace=wrap;html=1;" vertex="1" parent="1">
          <mxGeometry x="330" y="320" width="120" height="30" as="geometry" />
        </mxCell>
        <mxCell id="12IPPh0hhwhr2ivxiyk1-37" value="TEXTO" style="rounded=0;whiteSpace=wrap;html=1;" vertex="1" parent="1">
          <mxGeometry x="330" y="350" width="370" height="120" as="geometry" />
        </mxCell>
        <mxCell id="12IPPh0hhwhr2ivxiyk1-38" value="TITULO" style="rounded=0;whiteSpace=wrap;html=1;" vertex="1" parent="1">
          <mxGeometry x="330" y="490" width="120" height="30" as="geometry" />
        </mxCell>
        <mxCell id="12IPPh0hhwhr2ivxiyk1-39" value="TEXTO" style="rounded=0;whiteSpace=wrap;html=1;" vertex="1" parent="1">
          <mxGeometry x="330" y="520" width="370" height="100" as="geometry" />
        </mxCell>
        <mxCell id="12IPPh0hhwhr2ivxiyk1-41" value="" style="shape=link;html=1;rounded=0;" edge="1" parent="1">
          <mxGeometry width="100" relative="1" as="geometry">
            <mxPoint x="710" y="169.31" as="sourcePoint" />
            <mxPoint x="740" y="169.31" as="targetPoint" />
          </mxGeometry>
        </mxCell>
      </root>
    </mxGraphModel>
  </diagram>
</mxfile>
